<svg xmlns="http://www.w3.org/2000/svg" style="position:absolute;width:0;height:0;overflow:hidden">
  <symbol id="logo" viewBox="0 0 24 24">
    <path d="M12 3l8 4v6c0 5-3.5 9-8 9s-8-4-8-9V7l8-4z" fill="none" stroke="currentColor" stroke-width="1.5" stroke-linejoin="round"/>
    <path d="M9.5 11.5h5M9.5 14.5h3.5" fill="none" stroke="currentColor" stroke-width="1.5" stroke-linecap="round"/>
  </symbol>
  <symbol id="home" viewBox="0 0 24 24">
    <path d="M4 11.5l8-7 8 7" fill="none" stroke="currentColor" stroke-width="1.5" stroke-linecap="round" stroke-linejoin="round"/>
    <path d="M6.5 10.8V20h11V10.8" fill="none" stroke="currentColor" stroke-width="1.5" stroke-linejoin="round"/>
  </symbol>
  <symbol id="book" viewBox="0 0 24 24">
    <path d="M6 4.5h9a3 3 0 013 3V20H9a3 3 0 00-3 3V4.5z" fill="none" stroke="currentColor" stroke-width="1.5" stroke-linejoin="round"/>
    <path d="M18 20H9a3 3 0 00-3 3" fill="none" stroke="currentColor" stroke-width="1.5" stroke-linecap="round"/>
  </symbol>
  <symbol id="sparkles" viewBox="0 0 24 24">
    <path d="M12 3l1.3 4.1L17.5 8.4l-4.2 1.3L12 13.8l-1.3-4.1L6.5 8.4l4.2-1.3L12 3z" fill="none" stroke="currentColor" stroke-width="1.5" stroke-linejoin="round"/>
    <path d="M5 14l.8 2.4L8.2 17l-2.4.8L5 20l-.8-2.2L2 17l2.2-.6L5 14zM19 12l.7 2.1L22 15l-2.3.7L19 18l-.7-2.3L16 15l2.3-.9L19 12z" fill="none" stroke="currentColor" stroke-width="1.5" stroke-linejoin="round"/>
  </symbol>
  <symbol id="robot" viewBox="0 0 24 24">
    <path d="M10 3h4v3h-4V3z" fill="none" stroke="currentColor" stroke-width="1.5" stroke-linejoin="round"/>
    <path d="M6.5 10.5A4.5 4.5 0 0111 6h2a4.5 4.5 0 014.5 4.5V16A4.5 4.5 0 0113 20h-2A4.5 4.5 0 016.5 16v-5.5z" fill="none" stroke="currentColor" stroke-width="1.5" stroke-linejoin="round"/>
    <path d="M9 12h.5M14.5 12h.5" fill="none" stroke="currentColor" stroke-width="1.8" stroke-linecap="round"/>
    <path d="M10 15.5h4" fill="none" stroke="currentColor" stroke-width="1.5" stroke-linecap="round"/>
  </symbol>
  <symbol id="chat" viewBox="0 0 24 24">
    <path d="M5 6.5h14a3 3 0 013 3V20l-4-2.2H8a3 3 0 01-3-3V6.5z" fill="none" stroke="currentColor" stroke-width="1.5" stroke-linejoin="round"/>
    <path d="M8 11h8M8 14h5" fill="none" stroke="currentColor" stroke-width="1.5" stroke-linecap="round"/>
  </symbol>
  <symbol id="chart" viewBox="0 0 24 24">
    <path d="M5 19V5" fill="none" stroke="currentColor" stroke-width="1.5" stroke-linecap="round"/>
    <path d="M5 19h15" fill="none" stroke="currentColor" stroke-width="1.5" stroke-linecap="round"/>
    <path d="M8 16v-5M12 16V8M16 16v-3" fill="none" stroke="currentColor" stroke-width="1.5" stroke-linecap="round"/>
  </symbol>
  <symbol id="settings" viewBox="0 0 24 24">
    <path d="M12 15.8a3.8 3.8 0 100-7.6 3.8 3.8 0 000 7.6z" fill="none" stroke="currentColor" stroke-width="1.5"/>
    <path d="M19.4 13.5l1.2-1.5-1.6-2.8-1.9.3a7.6 7.6 0 00-1.5-0.9l-.7-1.8H9.1l-.7 1.8c-.5.2-1 .5-1.5.9l-1.9-.3L3.4 12l1.2 1.5c-.1.5-.1 1 0 1.5L3.4 16.5l1.6 2.8 1.9-.3c.5.4 1 .7 1.5.9l.7 1.8h5.8l.7-1.8c.5-.2 1-.5 1.5-.9l1.9.3 1.6-2.8-1.2-1.5c.1-.5.1-1 0-1.5z" fill="none" stroke="currentColor" stroke-width="1.5" stroke-linejoin="round"/>
  </symbol>
  <symbol id="logout" viewBox="0 0 24 24">
    <path d="M10 7H6a2 2 0 00-2 2v6a2 2 0 002 2h4" fill="none" stroke="currentColor" stroke-width="1.5" stroke-linecap="round"/>
    <path d="M14 16l4-4-4-4" fill="none" stroke="currentColor" stroke-width="1.5" stroke-linecap="round" stroke-linejoin="round"/>
    <path d="M18 12H9" fill="none" stroke="currentColor" stroke-width="1.5" stroke-linecap="round"/>
  </symbol>
  <symbol id="send" viewBox="0 0 24 24">
    <path d="M3.5 11.5l18-8-8 18-2.1-7.2L3.5 11.5z" fill="none" stroke="currentColor" stroke-width="1.5" stroke-linejoin="round"/>
    <path d="M11.4 14.3l10.1-10.8" fill="none" stroke="currentColor" stroke-width="1.5" stroke-linecap="round"/>
  </symbol>
  <symbol id="user" viewBox="0 0 24 24">
    <path d="M12 12.2a4.2 4.2 0 10-4.2-4.2A4.2 4.2 0 0012 12.2z" fill="none" stroke="currentColor" stroke-width="1.5"/>
    <path d="M4.5 20.5a7.5 7.5 0 0115 0" fill="none" stroke="currentColor" stroke-width="1.5" stroke-linecap="round"/>
  </symbol>
  <symbol id="lock" viewBox="0 0 24 24">
    <path d="M7.5 11V8.5a4.5 4.5 0 019 0V11" fill="none" stroke="currentColor" stroke-width="1.5" stroke-linecap="round"/>
    <path d="M6.5 11h11v9h-11v-9z" fill="none" stroke="currentColor" stroke-width="1.5" stroke-linejoin="round"/>
  </symbol>
  <symbol id="warning" viewBox="0 0 24 24">
    <path d="M12 3l10 18H2L12 3z" fill="none" stroke="currentColor" stroke-width="1.5" stroke-linejoin="round"/>
    <path d="M12 9v4.5" fill="none" stroke="currentColor" stroke-width="1.5" stroke-linecap="round"/>
    <path d="M12 17.5h.01" fill="none" stroke="currentColor" stroke-width="2.2" stroke-linecap="round"/>
  </symbol>
  <symbol id="dashboard" viewBox="0 0 24 24">
    <path d="M12 3a9 9 0 109 9" fill="none" stroke="currentColor" stroke-width="1.5" stroke-linecap="round"/>
    <path d="M12 12l6-3" fill="none" stroke="currentColor" stroke-width="1.5" stroke-linecap="round"/>
    <path d="M7 21h10" fill="none" stroke="currentColor" stroke-width="1.5" stroke-linecap="round"/>
  </symbol>
  <symbol id="trash" viewBox="0 0 24 24">
    <path d="M9 7h6" fill="none" stroke="currentColor" stroke-width="1.5" stroke-linecap="round"/>
    <path d="M6.5 7h11l-1 14h-9l-1-14z" fill="none" stroke="currentColor" stroke-width="1.5" stroke-linejoin="round"/>
    <path d="M10 10.5v7M14 10.5v7" fill="none" stroke="currentColor" stroke-width="1.5" stroke-linecap="round"/>
    <path d="M9 7V5.7A1.7 1.7 0 0110.7 4h2.6A1.7 1.7 0 0115 5.7V7" fill="none" stroke="currentColor" stroke-width="1.5" stroke-linecap="round"/>
  </symbol>
  <symbol id="spinner" viewBox="0 0 24 24">
    <path d="M12 4a8 8 0 108 8" fill="none" stroke="currentColor" stroke-width="1.5" stroke-linecap="round"/>
  </symbol>
  <symbol id="users" viewBox="0 0 24 24">
    <path d="M9 11.5a3.5 3.5 0 10-3.5-3.5A3.5 3.5 0 009 11.5z" fill="none" stroke="currentColor" stroke-width="1.5"/>
    <path d="M19 12a3 3 0 10-3-3 3 3 0 003 3z" fill="none" stroke="currentColor" stroke-width="1.5"/>
    <path d="M3.5 20a6.5 6.5 0 0113 0" fill="none" stroke="currentColor" stroke-width="1.5" stroke-linecap="round"/>
    <path d="M16.5 20a5.2 5.2 0 015-4.2" fill="none" stroke="currentColor" stroke-width="1.5" stroke-linecap="round"/>
  </symbol>
  <symbol id="history" viewBox="0 0 24 24">
    <path d="M4 12a8 8 0 111.9 5.2" fill="none" stroke="currentColor" stroke-width="1.5" stroke-linecap="round"/>
    <path d="M4 16v-4h4" fill="none" stroke="currentColor" stroke-width="1.5" stroke-linecap="round" stroke-linejoin="round"/>
    <path d="M12 7v5l3 2" fill="none" stroke="currentColor" stroke-width="1.5" stroke-linecap="round" stroke-linejoin="round"/>
  </symbol>
  <symbol id="database" viewBox="0 0 24 24">
    <path d="M12 3c4.4 0 8 1.3 8 3s-3.6 3-8 3-8-1.3-8-3 3.6-3 8-3z" fill="none" stroke="currentColor" stroke-width="1.5"/>
    <path d="M4 6v6c0 1.7 3.6 3 8 3s8-1.3 8-3V6" fill="none" stroke="currentColor" stroke-width="1.5" stroke-linejoin="round"/>
    <path d="M4 12v6c0 1.7 3.6 3 8 3s8-1.3 8-3v-6" fill="none" stroke="currentColor" stroke-width="1.5" stroke-linejoin="round"/>
  </symbol>
  <symbol id="chevron-right" viewBox="0 0 24 24">
    <path d="M10 6l6 6-6 6" fill="none" stroke="currentColor" stroke-width="1.5" stroke-linecap="round" stroke-linejoin="round"/>
  </symbol>
  <symbol id="check" viewBox="0 0 24 24">
    <path d="M5 12.5l4 4L19 7.5" fill="none" stroke="currentColor" stroke-width="1.5" stroke-linecap="round" stroke-linejoin="round"/>
  </symbol>
  <symbol id="login" viewBox="0 0 24 24">
    <path d="M10 7H6a2 2 0 00-2 2v6a2 2 0 002 2h4" fill="none" stroke="currentColor" stroke-width="1.5" stroke-linecap="round"/>
    <path d="M14 16l4-4-4-4" fill="none" stroke="currentColor" stroke-width="1.5" stroke-linecap="round" stroke-linejoin="round"/>
    <path d="M18 12H9" fill="none" stroke="currentColor" stroke-width="1.5" stroke-linecap="round"/>
  </symbol>
  <symbol id="user-plus" viewBox="0 0 24 24">
    <path d="M10.5 12a4 4 0 10-4-4 4 4 0 004 4z" fill="none" stroke="currentColor" stroke-width="1.5"/>
    <path d="M2.8 20.5a7.7 7.7 0 0115.4 0" fill="none" stroke="currentColor" stroke-width="1.5" stroke-linecap="round"/>
    <path d="M18.5 9.5v5M16 12h5" fill="none" stroke="currentColor" stroke-width="1.5" stroke-linecap="round"/>
  </symbol>
</svg>
